<svg viewBox="0 0 500 500" xmlns="http://www.w3.org/2000/svg">
  <defs/>
  <g stroke-width="0" transform="matrix(13.841871, 0, 0, 13.841871, -45.62289, -13.307364)" style=""/>
  <g stroke-linecap="round" stroke-linejoin="round" transform="matrix(13.841871, 0, 0, 13.841871, -45.62289, -13.307364)" style=""/>
  <g transform="matrix(13.841871, 0, 0, 13.841871, -45.62289, -13.307364)" style="">
    <path d="M8,17.58a32.35,32.35,0,0,0,6.3.92,4.13,4.13,0,0,1,.92-1.37,30.94,30.94,0,0,1-7.22-1Z" class="clr-i-outline clr-i-outline-path-1"/>
    <path d="M6,28V8.19c.34-.76,4.31-2.11,11-2.11s10.67,1.35,11,2v.3c-.82.79-4.58,2.05-11.11,2.05A33.48,33.48,0,0,1,8,9.44v1.44a35.6,35.6,0,0,0,8.89,1c4.29,0,8.8-.58,11.11-1.82v5.07a5.3,5.3,0,0,1-1.81.88H30V8.12c0-3.19-8.17-4-13-4s-13,.85-13,4V28C4,30.63,9.39,31.68,14,32V30C9.13,29.66,6.28,28.62,6,28Z" class="clr-i-outline clr-i-outline-path-2"/>
    <path d="M8,24.28a31.3,31.3,0,0,0,6,.89v-1.4a28.93,28.93,0,0,1-6-.93Z" class="clr-i-outline clr-i-outline-path-3"/>
    <path d="M32,18H18a2,2,0,0,0-2,2V32a2,2,0,0,0,2,2H32a2,2,0,0,0,2-2V20A2,2,0,0,0,32,18ZM18,32V20H32V32Z" class="clr-i-outline clr-i-outline-path-4"/>
    <path d="M21,21.7a.7.7,0,0,0-.7.7v7.49a.7.7,0,0,0,1.4,0V22.4A.7.7,0,0,0,21,21.7Z" class="clr-i-outline clr-i-outline-path-5"/>
    <path d="M25,21.82a.7.7,0,0,0-.7.7V30a.7.7,0,1,0,1.4,0V22.52A.7.7,0,0,0,25,21.82Z" class="clr-i-outline clr-i-outline-path-6"/>
    <path d="M29,21.7a.7.7,0,0,0-.7.7v7.49a.7.7,0,1,0,1.4,0V22.4A.7.7,0,0,0,29,21.7Z" class="clr-i-outline clr-i-outline-path-7"/>
    <rect x="0" y="0" width="36" height="36" fill-opacity="0"/>
  </g>
  <g transform="matrix(2.301376, 0, 0, 2.301376, -128.233063, 95.806259)" style="">
    <path fill="#d33833" d="M 268.661 88.151 C 268.661 113.511 248.562 134.069 223.769 134.069 C 198.975 134.069 178.876 113.511 178.876 88.151 C 178.876 62.791 198.976 42.231 223.769 42.231 C 248.562 42.231 268.661 62.791 268.661 88.151"/>
    <path fill="#ef3d3a" d="M 180.706 99.523 C 180.706 99.523 177.456 51.638 221.578 50.271 L 218.5 45.141 L 194.557 53.178 L 187.717 61.045 L 181.731 72.504 L 178.311 85.843 L 179.336 94.736"/>
    <path fill="#231f20" d="M 193.021 56.826 C 185.145 64.886 180.271 76.012 180.271 88.322 C 180.271 100.629 185.145 111.758 193.021 119.816 C 200.901 127.873 211.761 132.846 223.768 132.846 C 235.775 132.846 246.635 127.873 254.515 119.816 C 262.391 111.758 267.266 100.629 267.266 88.322 C 267.266 76.012 262.391 64.885 254.515 56.826 C 246.635 48.771 235.775 43.798 223.768 43.797 C 211.762 43.798 200.901 48.77 193.021 56.827 L 193.021 56.826 Z M 191.028 121.765 C 182.658 113.204 177.482 101.373 177.482 88.322 C 177.482 75.269 182.658 63.439 191.028 54.878 C 199.398 46.315 210.982 41.008 223.768 41.009 C 236.556 41.007 248.142 46.315 256.509 54.878 C 264.881 63.439 270.057 75.27 270.056 88.322 C 270.056 101.372 264.881 113.204 256.509 121.765 C 248.142 130.327 236.556 135.635 223.769 135.635 C 210.982 135.635 199.397 130.327 191.029 121.765"/>
    <path fill="#f0d6b7" d="M 242.666 88.405 L 235.825 89.431 L 226.59 90.457 L 220.604 90.628 L 214.789 90.458 L 210.343 89.089 L 206.409 84.814 L 203.331 76.092 L 202.647 74.211 L 198.542 72.843 L 196.148 68.909 L 194.438 63.265 L 196.319 58.305 L 200.765 56.767 L 204.357 58.477 L 206.067 62.239 L 208.12 61.897 L 208.803 61.042 L 208.12 57.109 L 207.948 52.149 L 208.974 45.309 L 208.934 41.401 L 212.053 36.416 L 217.525 32.482 L 227.103 28.378 L 237.706 29.917 L 246.941 36.587 L 251.217 43.427 L 253.953 48.387 L 254.637 60.7 L 252.584 71.304 L 248.822 80.709 L 245.231 85.669"/>
    <path fill="#335061" d="M 247.795 83.446 L 243.692 87.551 L 243.692 103.455 L 240.112 118.115 L 238.391 118.162 L 239.758 134.58 L 246.256 133.725 L 244.718 117.991 L 241.816 118.07 L 249.679 117.648 C 249.679 117.648 253.611 107.729 253.611 107.216 C 253.611 106.703 257.033 92.851 257.033 92.851 L 249.335 84.814 L 247.796 83.444 L 247.795 83.446 Z M 206.58 86.01 L 202.305 87.721 L 188.623 97.127 L 189.479 99.864 L 193.413 111.492 L 195.122 130.819 L 196.319 132.869 L 213.42 138.686 L 214.448 137.486 L 212.395 123.121 L 212.395 119.018 L 236.85 117.991 L 238.73 116.965 L 223.854 109.953 L 226.59 104.653 L 222.657 106.02 L 221.117 104.139 L 219.065 95.246 L 217.354 94.733 L 213.592 93.535 L 210.342 90.629 L 206.581 86.01 L 206.58 86.01 Z"/>
    <path fill="#6d6b6d" d="M 196.319 58.306 L 200.765 56.766 L 204.357 58.477 L 206.067 62.239 L 208.12 61.897 L 208.633 59.845 L 207.607 55.912 L 208.633 46.505 L 207.777 41.375 L 210.856 37.783 L 217.526 32.482 L 215.644 29.917 L 206.238 34.534 L 202.305 37.613 L 200.081 42.401 L 196.661 47.018 L 195.635 52.491 L 196.319 58.306"/>
    <path fill="#dcd9d8" d="M 219.213 30.492 C 218.041 30.48 216.67 30.6 216.67 30.6 L 205.555 34.877 L 201.278 39.153 L 199.397 42.573 L 203.331 42.231 C 203.331 42.231 205.896 35.903 216.157 32.825 C 222.57 30.901 221.167 30.513 219.213 30.492 L 219.213 30.492 Z M 207.778 41.375 L 198.372 43.598 L 195.635 52.491 L 196.319 58.305 L 198.199 57.11 C 198.199 57.11 194.608 45.136 208.289 43.426 L 207.778 41.376 L 207.778 41.375 Z"/>
    <path fill="#f7e4cd" d="M 229.754 26.946 C 228.437 26.97 227.134 27.223 225.904 27.694 C 215.644 31.627 208.119 38.809 208.289 43.426 C 208.581 51.29 208.461 51.296 208.461 51.296 C 208.461 51.296 211.369 36.245 226.078 33.337 C 238.186 30.944 244.546 33.849 246.941 36.585 C 246.941 36.585 238.691 26.765 229.755 26.945 L 229.754 26.946 Z M 248.082 38.296 C 247.537 38.293 243.169 38.404 243.008 42.573 C 243.008 42.573 243.008 43.256 243.35 43.94 C 243.35 43.94 247.284 39.493 249.678 41.887 L 248.139 38.297 C 248.139 38.297 248.119 38.295 248.082 38.295 L 248.082 38.296 Z M 222.897 40.306 C 222.057 40.326 221.021 40.677 219.748 41.546 C 215.986 44.111 216.328 47.703 217.012 48.387 C 217.696 49.071 217.511 50.447 218.032 49.502 C 218.552 48.557 218.381 45.48 220.262 44.625 C 222.143 43.77 225.228 42.813 226.422 44.403 C 226.422 44.403 225.9 40.237 222.897 40.307 L 222.897 40.306 Z M 249.334 50.782 C 249.334 50.782 246.516 51.376 246.256 53.86 C 245.996 56.343 249.335 54.372 249.848 54.201 L 249.334 50.781 L 249.334 50.782 Z M 228.641 50.953 C 228.641 50.953 224.879 51.466 224.879 53.86 C 224.879 56.254 229.155 56.083 230.352 55.057 L 228.641 50.953 Z M 198.2 57.111 L 194.268 61.213 L 194.952 66.344 L 197.002 71.644 L 199.227 72.33 C 195.977 68.397 197.516 65.659 198.2 61.897 C 198.883 58.134 205.383 62.069 205.383 62.069 L 205.211 59.502 L 202.647 57.452 L 198.2 57.11 L 198.2 57.111 Z M 236.809 64.958 C 235.683 64.908 235.253 68.593 235.161 69.544 C 235.471 68.624 238.332 66.774 238.332 66.774 C 238.332 66.774 238.332 65.378 236.936 64.98 C 236.894 64.968 236.852 64.961 236.809 64.958 L 236.809 64.958 Z M 235.161 69.544 C 235.133 69.615 235.126 69.691 235.141 69.765 C 235.141 69.765 235.147 69.685 235.161 69.545 L 235.161 69.544 Z M 205.913 70.845 L 203.673 73.015 L 204.186 80.54 L 209.659 89.091 C 209.659 89.091 215.802 90.477 215.131 89.947 C 207.778 84.132 207.265 73.357 207.094 72.159 C 206.924 70.963 205.913 70.845 205.913 70.845 Z M 225.157 73.394 C 224.482 73.404 224.035 73.622 223.909 73.79 C 223.482 74.36 224.366 77.462 224.366 77.462 L 225.221 77.634 C 225.051 74.213 227.102 73.87 227.102 73.87 C 226.344 73.506 225.682 73.386 225.157 73.394 L 225.157 73.394 Z"/>
    <path fill="#49728b" d="M 205.383 85.841 L 188.623 97.127 L 190.504 102.43 L 194.952 121.582 L 195.122 131.674 L 197.516 132.528 C 200.936 124.318 194.268 97.811 194.268 97.811 L 210.342 90.629 L 205.383 85.84 L 205.383 85.841 Z M 211.997 105.289 L 211.539 106.362 C 211.539 106.362 211.198 109.44 211.198 110.295 C 211.198 111.151 211.539 118.335 211.539 118.335 L 214.276 118.335 L 214.276 108.072 L 211.996 105.288 L 211.997 105.289 Z M 212.053 119.873 L 204.358 120.215 L 206.58 121.755 L 212.053 122.61 L 212.053 119.873 L 212.053 119.873 Z M 247.795 83.446 L 244.547 87.037 L 256.518 95.931 L 256.86 91.827 L 247.795 83.447 L 247.795 83.446 Z M 244.375 116.966 L 238.391 118.162 L 239.245 122.952 C 241.468 123.978 245.231 121.241 245.231 121.241 L 244.375 116.965 L 244.375 116.966 Z"/>
    <path fill="#fff" d="M 210.342 89.091 L 210.342 90.629 L 212.516 93.024 L 219.356 96.102 L 219.528 90.973 L 214.789 90.457 L 210.342 89.09 L 210.342 89.091 Z M 260.401 113.375 L 254.928 115.086 L 249.678 117.649 L 246.889 117.139 L 244.717 117.992 L 246.549 132.36 L 253.217 130.477 L 265.873 129.793 L 267.754 123.979 L 264.334 113.889 L 260.401 113.375 L 260.401 113.375 Z M 238.391 118.162 L 228.421 118.164 L 212.395 119.018 L 212.686 126.887 L 214.448 137.487 L 217.988 151.856 L 225.854 153.565 L 238.852 152.539 L 239.022 149.973 L 237.482 136.121 L 238.391 118.162 L 238.391 118.162 Z M 239.708 116.796 L 235.945 107.219 L 232.011 101.575 C 232.011 101.575 232.866 99.181 234.064 99.181 L 237.997 99.181 L 241.759 100.549 L 241.418 106.877 L 239.708 116.797"/>
    <path fill="#dcd9d8" d="M 211.883 91.485 L 211.37 92.17 L 214.278 94.221 L 219.065 95.246 L 218.895 93.196 C 217.185 93.709 211.883 91.485 211.883 91.485 L 211.883 91.485 Z M 235.653 98.838 L 231.721 99.35 L 238.391 115.084 L 239.758 115.256 L 240.442 113.546 C 240.442 113.546 235.652 104.31 235.652 102.942 C 235.652 102.942 236.508 100.89 237.705 101.402 C 238.903 101.916 241.469 103.284 241.469 103.284 L 241.469 100.035 L 235.653 98.838 L 235.653 98.838 Z M 251.901 116.795 L 249.678 117.649 L 251.559 127.055 C 250.875 126.884 246.429 128.938 246.429 128.938 L 246.939 131.674 L 248.823 130.989 L 254.807 130.135 L 256.518 132.358 L 261.648 132.528 L 264.727 131.844 L 267.463 127.741 L 267.291 124.661 L 265.411 119.188 C 265.924 123.292 263.871 127.227 263.871 127.227 C 263.016 127.227 253.44 126.713 253.44 126.713 C 253.44 125.687 251.9 116.795 251.9 116.795 L 251.901 116.795 Z M 238.731 116.965 L 236.166 117.992 C 236.166 117.992 235.312 135.779 237.877 148.434 C 237.877 148.434 232.747 151.683 225.221 152.537 L 239.586 152.024 L 241.297 150.998 L 239.245 122.951 L 238.731 116.965 L 238.731 116.965 Z M 243.201 135.262 C 242.465 135.266 241.371 135.788 240.598 135.737 C 240.485 138.438 240.864 142.77 240.991 145.604 C 242.787 145.606 243.556 145.212 244.897 144.76 C 245.048 141.425 243.84 138.338 243.493 135.293 C 243.398 135.27 243.3 135.26 243.202 135.262 L 243.201 135.262 Z"/>
    <path fill="#d33833" d="M 244.545 90.289 C 242.353 90.391 239.397 93.186 238.02 93.676 C 238.198 94.188 238.49 94.593 238.512 95.246 C 239.477 95.008 240.652 95.171 241.489 95.582 C 240.521 95.69 239.451 95.684 238.811 96.145 C 238.576 96.822 238.866 97.745 238.709 98.685 C 241.005 99.333 243.628 99.679 246.529 99.764 C 247.095 99.031 247.287 97.631 247.219 96.246 C 247.139 94.576 246.7 91.142 245.669 90.541 C 245.329 90.344 244.951 90.271 244.545 90.289 L 244.545 90.289 Z M 222.01 91.037 C 219.686 91.087 219.928 95.145 220.041 97.629 C 220.136 99.727 221.229 101.947 221.701 103.342 C 221.925 103.992 221.975 104.684 222.531 104.812 C 223.515 105.042 226.761 103.745 227.686 103.241 C 229.641 102.175 231.159 100.481 232.819 99.344 L 232.881 97.686 C 231.883 97.188 230.731 96.834 229.264 96.77 C 230.259 96.27 231.721 96.277 232.627 95.682 L 232.653 95.02 C 230.999 94.893 230.368 94.156 229.278 93.559 C 227.494 92.585 224.814 91.522 222.51 91.082 C 222.345 91.05 222.178 91.035 222.01 91.037 L 222.01 91.037 Z M 235.44 94.494 C 234.998 94.498 234.471 94.665 233.87 95.067 C 233.756 96.326 234.05 96.737 234.303 98.182 C 237.796 99.275 237.828 94.478 235.44 94.494 L 235.44 94.494 Z"/>
    <path fill="#ef3d3a" d="M 244.325 89.092 L 237.827 92.854 L 237.483 94.734 L 237.483 98.496 L 239.877 99.352 C 239.877 99.352 238.68 97.642 239.536 97.129 C 240.391 96.616 241.247 97.129 241.76 96.274 C 242.273 95.418 241.76 94.905 241.93 93.879 C 242.101 92.853 242.956 92.683 243.811 92.512 C 244.666 92.342 247.061 91.999 247.403 92.854 L 246.377 89.776 L 244.325 89.092 Z M 222.789 90.122 C 221.942 90.104 221.17 90.244 220.604 90.629 C 216.583 93.364 219.824 99.685 221.794 103.403 C 221.627 101.266 221.448 99.13 221.256 96.994 C 220.894 93.014 222.213 93.709 225.664 93.709 C 226.192 93.709 228.909 94.337 229.104 94.735 C 230.037 96.64 227.544 96.216 230.178 97.653 C 232.402 98.865 236.33 96.916 235.432 94.221 C 234.929 93.621 232.812 94.034 232.053 93.641 L 228.045 91.563 C 226.877 90.956 224.653 90.16 222.789 90.121 L 222.789 90.122 Z M 221.793 103.402 C 221.835 103.934 221.879 104.465 221.92 104.996 L 222.532 104.813 C 222.328 104.408 222.072 103.93 221.793 103.403 L 221.793 103.402 Z"/>
    <path fill="#231f20" d="M 227.333 26.477 C 223.743 26.545 220.232 27.142 217.306 28.219 C 215.131 29.019 213.024 29.735 211.114 30.857 C 206.003 33.857 200.577 35.865 199.062 41.904 C 195.328 43.576 194.202 48.355 194.39 53.901 C 194.426 54.982 195.013 56.333 194.81 57.35 C 194.706 57.866 194.006 58.527 193.866 58.863 C 192.076 63.13 193.511 68.739 195.579 71.772 C 196.829 73.604 198.899 75.229 201.629 75.66 C 201.738 77.295 202.131 78.702 202.886 80.359 C 203.364 81.407 205.149 83.291 204.492 84.628 C 204.162 85.302 201.255 86.765 200.291 87.344 C 197.036 89.296 194.677 90.493 191.672 92.656 C 189.728 94.056 186.687 94.236 187.167 97.464 C 187.49 99.642 188.73 102.342 189.439 104.526 C 190.207 106.883 191.307 109.042 191.939 111.488 C 193.344 116.939 193.637 122.075 193.979 127.399 C 194.113 129.484 193.891 131.69 194.432 132.841 C 194.99 134.031 197.058 134.411 198.552 135.105 C 202.867 137.1 207.445 140.147 213.104 139.542 C 214.453 144.078 215.728 148.909 217.347 152.882 C 223.15 154.968 232.311 154.642 238.344 153.917 C 240.178 153.695 242.113 152.79 242.544 151.2 C 242.415 150.22 242.272 149.25 242.334 148.091 C 244.22 147.701 246.787 147.379 247.202 145.291 C 247.784 142.363 245.353 138.168 246.164 134.955 C 247.256 134.601 248.422 134.324 248.248 132.6 C 250.088 131.642 252.271 131.428 254.601 131.518 C 254.901 132.098 255.328 132.656 255.712 132.975 C 258.976 133.631 262.137 133.685 264.847 132.801 C 267.914 131.799 269.377 125.526 268.676 122.541 C 268.178 120.426 267.052 116.961 266.092 114.913 C 263.491 109.353 255.739 112.843 251.59 114.905 C 253.603 109.61 255.334 104.12 257.11 98.18 C 257.64 96.4 258.688 93.877 258.453 92.033 C 258.233 90.299 255.529 88.477 254.106 87.103 C 253.315 86.341 249.627 83.541 249.413 82.493 C 249.206 81.479 250.917 79.182 251.467 78.033 C 252.257 76.389 252.823 74.377 253.212 73.008 C 256.112 62.812 256.407 48.804 252.261 40.422 C 250.691 37.247 246.301 32.862 243.556 30.785 C 239.508 27.725 233.314 26.365 227.333 26.477 Z M 227.811 29.317 C 232.658 29.27 238.048 30.98 241.698 33.039 C 244.748 34.759 246.998 38.087 249.144 40.856 C 246.135 39.963 243.574 41.498 244.041 43.98 C 246.56 41.671 250.863 43.955 252.136 46.508 C 253.353 48.948 253.345 52.565 253.532 56.193 C 253.985 64.991 251.922 74.068 247.501 80.427 C 246.319 82.125 245.327 83.981 243.665 85.15 C 239.659 87.963 233.57 90.513 228.356 88.764 C 221.466 86.452 218.336 81.861 214.546 76.604 C 214.649 79.492 216.68 81.862 218.686 84.071 C 220.431 85.996 222.537 88.171 224.803 89.069 C 222.913 88.625 220.011 88.486 219.223 90.183 C 214.813 89.89 210.715 89.439 208.629 86.45 C 206.985 84.094 205.315 80.087 204.566 76.992 C 204.413 76.356 204.151 75.002 204.215 74.655 C 204.461 73.312 206.853 72.722 205.912 70.845 C 204.176 70.829 203.785 72.425 202.192 72.583 C 198.067 72.991 195.157 67.116 195.344 63.571 C 195.503 60.557 198.051 57.673 201.536 58.054 C 203.999 58.324 204.836 61.012 205.314 63.404 C 206.734 63.48 208.785 63.343 209.457 62.235 C 209.36 59.532 208.105 57.364 208.191 54.88 C 208.353 50.212 210.896 46 208.934 41.402 C 211.034 36.638 217.195 32.878 221.752 30.605 C 223.517 29.725 225.608 29.341 227.812 29.319 L 227.811 29.317 Z M 215.273 31.663 C 215.471 31.695 215.653 31.849 215.829 32.037 C 215.799 32.848 214.999 32.831 214.459 33.091 C 213.619 34.124 212.391 34.607 211.369 35.739 C 210.32 36.899 209.147 40.015 207.757 40.359 C 207.06 40.533 206.264 40.239 205.657 40.279 C 204.052 40.38 202.922 41.202 201.294 41.438 C 203.396 36.843 209.953 33.125 215.068 31.676 C 215.134 31.657 215.204 31.652 215.273 31.663 L 215.273 31.663 Z M 224.013 41.636 C 221.376 41.639 218.373 44.458 217.59 46.609 C 217.272 47.483 216.77 49.199 218.031 49.504 C 219.444 46.355 221.76 43.319 226.421 44.404 C 227.316 42.933 225.716 41.852 224.534 41.674 C 224.361 41.649 224.186 41.636 224.012 41.636 L 224.013 41.636 Z M 207.357 42.116 C 209.159 46.702 206.064 52.152 207.217 57.167 C 207.57 58.703 208.791 61.087 206.841 61.139 C 206.892 56.769 201.471 53.996 197.386 56.565 C 197.113 53.251 196.64 48.592 198.9 46.106 C 200.985 43.81 203.859 42.381 207.357 42.116 L 207.357 42.116 Z M 249.133 49.713 C 248.984 52.23 249.919 53.745 250.568 55.525 C 249.446 56.231 247.263 55.791 245.998 56.344 C 245.908 60.067 251.758 58.232 252.648 56.159 C 251.318 54.227 250.407 51.909 249.353 49.722 L 249.133 49.712 L 249.133 49.713 Z M 228.808 49.77 C 228.116 51.734 229.996 55.068 231.05 56.754 C 229.677 58.087 227.208 56.98 225.371 56.894 C 223.618 59.663 228.794 60.184 231.015 59.528 C 231.623 59.349 232.675 58.438 232.82 58.028 C 233.437 56.295 232.193 55.535 231.553 54.911 C 230.133 53.527 229.807 51.601 228.808 49.77 L 228.808 49.77 Z M 239.357 51.58 C 239.223 51.562 239.062 51.61 238.869 51.75 C 238.744 56.366 242.174 60.187 244.732 63.27 C 245.982 64.775 247.488 65.635 246.101 67.973 C 243.865 68.823 240.246 71.258 237.137 70.726 C 235.487 70.444 235.859 68.571 235.267 67.553 C 234.129 69.05 234.575 71.315 235.747 72.333 C 241.226 72.875 244.955 70.539 248.299 68.39 C 248.166 67.548 249.311 66.03 248.993 64.764 C 248.883 64.328 247.891 63.696 247.289 63.037 C 244.836 60.362 241.475 56.365 240.139 53.239 C 240.019 52.959 239.938 51.656 239.357 51.579 L 239.357 51.58 Z M 200.377 60.215 C 199.11 60.195 197.962 61.03 197.691 62.998 C 198.253 62.63 198.706 61.583 199.719 62.081 C 198.829 63.818 199.043 67.201 200.254 68.301 C 200.247 66.239 199.926 62.714 201.684 62.821 C 202.915 62.895 203.164 65.531 204.212 66.129 C 204.935 62.651 202.49 60.247 200.377 60.215 L 200.377 60.215 Z M 250.428 70.575 C 247.755 71.795 245.598 73.572 242.106 73.907 C 241.937 74.484 242.009 75.94 242.102 76.897 C 246.669 76.802 248.872 73.539 250.428 70.576 L 250.428 70.575 Z M 228.544 72.496 C 229.879 76.069 235.897 77.329 240.987 77.075 C 240.979 76.017 240.984 74.945 240.772 74.077 C 236.812 74.193 231.457 74.028 228.544 72.497 L 228.544 72.496 Z M 227.991 75.354 C 225.418 75.357 227.588 76.788 228.024 77.348 C 228.926 78.508 229.984 80.487 231.632 81.363 C 234.23 82.743 239.39 82.164 241.262 81.403 C 241.954 81.123 242.512 80.346 242.769 79.69 C 236.929 79.83 230.006 80.412 227.991 75.354 Z M 247.427 85.184 C 249.427 86.795 250.635 88.311 252.553 90.034 C 253.593 90.967 255.641 92.085 255.848 93.594 C 255.963 94.436 255.447 96.499 255.257 97.446 C 254.417 101.6 252.527 107.088 250.727 111.441 C 250.073 113.023 249.447 115.001 248.584 115.343 C 246.22 116.279 243.351 115.252 241.342 116.503 C 244.042 111.818 246.982 107.392 249.628 102.651 C 249.225 101.711 248.237 101.31 247.95 100.263 C 249.808 96.754 248.954 85.86 244.212 88.16 C 244.875 87.186 246.616 86.382 247.427 85.184 L 247.427 85.184 Z M 205.703 87.664 C 206.134 87.494 209.28 91.587 209.745 91.919 C 212.295 93.729 215.461 95.159 218.422 96.572 C 218.603 97.931 219.022 99.692 219.76 102.048 C 220.573 104.65 221.244 108.322 224.682 106.446 C 224.355 107.932 222.445 108.854 222.972 110.587 C 223.302 111.674 226.912 113.017 228.056 113.663 C 230.167 114.853 232.093 115.511 233.715 116.207 C 226.345 116.409 219.424 117.009 212.613 117.936 C 211.797 116.672 212.126 114.724 212.04 112.711 C 211.946 110.525 212.855 105.597 211.996 105.291 C 211.025 104.946 210.843 106.914 210.808 107.348 C 210.626 109.656 211.907 114.543 210.644 117.306 C 209.262 116.915 208.581 115.876 207.286 115.404 C 206.778 117.004 208.338 117.081 208.178 118.097 C 207.966 119.44 205.421 118.317 205.435 120.314 C 207.092 120.58 209.634 119.799 211.405 120.546 C 211.868 125.979 212.612 131.127 213.427 136.898 C 206.379 136.532 201.817 133.03 196.622 130.601 C 196.299 119.111 194.468 107.191 189.934 97.461 C 194.69 93.791 200.012 89.909 205.704 87.665 L 205.703 87.664 Z M 244.785 90.29 C 245.101 90.305 245.398 90.384 245.669 90.542 C 246.701 91.144 247.14 94.578 247.22 96.248 C 247.287 97.633 247.094 99.031 246.53 99.765 C 243.628 99.68 241.006 99.335 238.71 98.687 C 238.867 97.747 238.575 96.822 238.81 96.144 C 239.449 95.684 240.521 95.692 241.488 95.584 C 240.652 95.172 239.478 95.009 238.513 95.247 C 238.49 94.593 238.197 94.189 238.02 93.677 C 239.447 93.168 242.574 90.181 244.785 90.29 L 244.785 90.29 Z M 239.585 90.417 C 238.367 91.211 237.33 92.204 236.161 93.052 C 233.568 93.181 232.153 92.873 230.248 91.384 C 230.278 91.264 230.47 91.318 230.478 91.171 C 233.253 92.408 236.782 90.667 239.584 90.417 L 239.585 90.417 Z M 212.238 90.466 C 213.685 91.471 216.485 91.223 218.616 91.597 C 218.726 92.28 218.174 93.177 218.184 94.128 C 216.391 94.018 210.757 91.968 212.238 90.466 L 212.238 90.466 Z M 222.01 91.039 C 222.165 91.035 222.331 91.05 222.51 91.084 C 224.814 91.524 227.494 92.586 229.278 93.561 C 230.368 94.157 230.999 94.893 232.653 95.021 C 232.646 95.241 232.636 95.461 232.628 95.683 C 231.722 96.278 230.259 96.271 229.265 96.771 C 230.731 96.835 231.885 97.188 232.883 97.686 L 232.818 99.345 C 231.157 100.482 229.64 102.175 227.685 103.241 C 226.76 103.745 223.515 105.043 222.532 104.813 C 221.975 104.684 221.925 103.993 221.702 103.343 C 221.229 101.948 220.138 99.729 220.042 97.631 C 219.929 95.146 219.686 91.086 222.01 91.039 L 222.01 91.039 Z M 235.304 94.502 C 235.441 94.491 235.571 94.495 235.694 94.513 C 237.82 94.826 237.666 99.235 234.302 98.183 C 234.049 96.739 233.756 96.327 233.869 95.068 C 234.411 94.707 234.891 94.535 235.304 94.502 Z M 237.24 99.516 C 238.458 99.646 239.422 101.326 241.16 101.216 C 240.881 105.748 241.027 110.296 239.762 114.448 C 237.405 110.126 236.018 104.908 232.967 101.231 C 233.289 100.889 233.577 100.51 233.893 100.16 C 235.275 100.738 236.177 99.402 237.24 99.516 Z M 244.248 100.958 C 245.926 100.945 247.3 102.042 248.055 103.255 C 245.691 107.305 243.429 111.463 240.625 115.035 C 241.8 111.577 242.304 105.79 242.482 101.378 C 243.033 101.112 243.636 100.969 244.248 100.958 Z M 231.478 102.501 C 234.278 106.055 235.982 110.626 237.858 115.038 C 233.426 113.702 228.898 111.534 225.014 109.336 C 225.776 106.032 228.764 104.32 231.478 102.501 L 231.478 102.501 Z M 260.989 114.229 C 262.206 114.259 263.415 115.247 263.944 116.048 C 264.9 117.492 265.793 121.743 266.294 124 C 267.041 127.359 265.362 130.629 262.691 131.277 L 262.691 131.278 C 260.747 131.75 257.765 131.874 256.492 131.259 C 258.05 130.408 260.391 130.403 262.194 129.819 C 259.611 128.707 255.789 129.755 252.683 129.561 C 252.308 125.726 252.025 121.568 251.116 118.541 C 252.929 116.614 257.309 116.151 259.796 114.56 C 260.151 114.331 260.567 114.216 260.989 114.229 L 260.989 114.229 Z M 260.778 117.807 C 257.595 117.901 255.108 118.744 253.688 120.745 C 256.271 120.91 258.131 118.337 260.778 117.807 Z M 248.238 118.592 C 248.463 118.602 248.685 118.627 248.898 118.675 C 250.59 121.585 250.954 126.424 250.898 129.936 C 249.843 130.14 249.158 130.744 247.878 130.704 C 247.551 126.703 246.622 122.496 246.24 118.684 C 246.85 118.672 247.56 118.564 248.237 118.592 L 248.238 118.592 Z M 228.635 118.635 C 231.975 118.581 235.215 118.777 238.02 119.361 C 238.705 123.814 238.45 128.206 238.95 132.571 C 239.612 138.379 239.116 145.005 240.25 150.447 C 234.077 152.36 225.66 152.175 218.676 150.055 C 215.529 140.412 213.813 131.259 212.629 120.37 C 217.216 119.512 223.066 118.725 228.635 118.635 L 228.635 118.635 Z M 243.459 119.019 C 244.562 123.006 244.496 128.079 245.038 132.586 C 243.37 132.952 242.15 133.131 240.355 133.401 C 239.998 128.719 239.725 124.106 239.789 119.43 C 241.061 119.004 242.183 119.03 243.459 119.019 Z M 257.945 121.315 C 256.685 121.331 255.551 121.605 255.065 122.347 C 257.255 122.527 259.787 122.177 261.945 121.949 C 260.961 121.609 259.373 121.296 257.945 121.315 Z M 257.584 124.555 C 256.456 124.569 255.461 124.783 254.95 125.332 C 257.254 125.525 260.268 125.573 262.693 125.521 C 261.71 125.063 259.463 124.531 257.583 124.555 L 257.584 124.555 Z M 242.866 135.291 C 243.102 135.254 243.316 135.246 243.493 135.293 C 243.841 138.338 245.048 141.424 244.897 144.759 C 243.557 145.211 242.787 145.607 240.99 145.604 C 240.864 142.77 240.484 138.438 240.598 135.736 C 241.26 135.78 242.159 135.402 242.866 135.291 Z"/>
    <path fill="#81b0c4" d="M 244.248 100.957 C 243.635 100.968 243.032 101.111 242.481 101.377 C 242.303 105.789 241.801 111.576 240.625 115.033 C 243.43 111.462 245.691 107.303 248.055 103.254 C 247.299 102.041 245.926 100.944 244.248 100.957 L 244.248 100.957 Z M 231.478 102.501 C 228.764 104.321 225.778 106.033 225.015 109.337 C 228.899 111.535 233.427 113.702 237.859 115.038 C 235.983 110.628 234.279 106.056 231.478 102.501 L 231.478 102.501 Z"/>
    <path fill="#f0d6b7" d="M 239.585 90.416 C 238.367 91.211 237.33 92.203 236.161 93.052 C 233.568 93.18 232.153 92.872 230.248 91.383 C 230.279 91.263 230.471 91.317 230.478 91.17 C 233.253 92.407 236.782 90.666 239.585 90.416"/>
    <path fill="#1d1919" d="M 238.903 103.199 C 238.903 103.923 238.119 104.376 237.492 104.014 C 237.201 103.846 237.022 103.535 237.022 103.199 C 237.022 102.475 237.805 102.023 238.432 102.385 C 238.723 102.553 238.903 102.863 238.903 103.199 M 239.844 107.56 C 239.844 108.285 239.06 108.737 238.432 108.375 C 238.141 108.207 237.962 107.897 237.962 107.56 C 237.962 106.836 238.746 106.383 239.373 106.745 C 239.664 106.913 239.844 107.224 239.844 107.56"/>
  </g>
</svg>